<svg xmlns="http://www.w3.org/2000/svg" width="100" height="100" viewBox="0 0 100 100" fill="none">
<path d="M31.9859 70.039L42.2112 68.9643L52.875 27.8035L55.375 27.8035C53.0953 36.5054 46.7142 62.8509 44.4345 71.5528L29.3522 73.138L24.2903 52.6241L18.6207 74.2659L4.37529 75.7632L10.2127 53.4806L13.1963 53.167L8.11911 72.5475L16.3974 71.6774L22.7817 47.3073L26.2858 46.939L31.9859 70.039Z" fill="#300219"/>
<path d="M36.4046 54.8618L35.3923 54.9682L36.1525 52.0661L37.1648 51.9597L36.4046 54.8618Z" fill="#300219"/>
<path d="M4.00046 73.1429L14.915 31.4797L27.5688 30.1498L33.5257 52.5047L34.538 52.3983L40.7288 28.7666L51.9907 27.5829L41.0761 69.2461L28.4223 70.576L22.7222 47.476L21.6467 47.589L15.2623 71.9592L4.00046 73.1429Z" fill="#F4F6FF"/>
<path d="M89.8825 34.5763L89.049 37.7579L79.725 38.7379L70.3572 74.4967L56.3749 75.9663L57.2084 72.7847L67.9197 71.6589L77.2875 35.9001L89.8825 34.5763Z" fill="#300219"/>
<path d="M53.7505 72.1264L63.1183 36.3676L51.7426 37.5633L54.3408 27.6453L89.0229 24L86.4246 33.918L75.4651 35.0699L66.0973 70.8287L53.7505 72.1264Z" fill="#F4F6FF"/>
</svg>